<svg width="128" height="128" viewBox="0 0 128 128" fill="none" xmlns="http://www.w3.org/2000/svg">
<path d="M31.18 74.1666L39.26 57.9L47.34 37.5667L61.48 43.6667L73.6 39.6L81.68 45.7L77.64 59.9333L59.46 76.2L35.22 80.2667L31.18 74.1666Z" fill="white"/>
<path d="M35.0117 42.3856C36.4585 42.063 38.5405 42.0664 40.3456 42.3846C41.3264 42.5575 42.3631 42.846 43.247 43.3172C44.047 43.7436 44.9796 44.4625 45.3779 45.6209L45.4501 45.8582L45.5058 46.1004C45.7358 47.3015 45.2865 48.3893 44.8076 49.158C44.2776 50.0085 43.5245 50.7789 42.7617 51.4217C41.2639 52.6836 39.3144 53.7946 37.8661 54.1854C34.6289 55.0583 31.3176 53.1219 30.457 49.8895C29.5976 46.6613 31.4981 43.327 34.7304 42.4549L35.0117 42.3856Z" fill="#FE9A00" stroke="white" stroke-width="3.86667"/>
<path d="M71.0467 11.8386C72.6488 10.7638 74.8139 11.158 75.9413 12.7165L76.0506 12.8766L77.8465 15.6579C78.8577 17.2215 78.5119 19.3029 77.0448 20.4528L61.7049 32.4763C61.4176 32.7017 61.3006 33.0825 61.412 33.4304L65.9696 47.6686L64.2977 42.0143L63.8944 40.652L65.0741 39.86C65.3981 39.6427 65.8432 39.4438 66.3075 39.2624C66.8129 39.0649 67.4756 38.8371 68.3153 38.5856C69.9961 38.0822 72.4383 37.466 75.8485 36.7907C80.0457 35.9596 83.6604 35.5909 86.7967 37.1911C89.9352 38.7926 92.1255 42.1148 94.2889 47.2429C98.6247 57.5212 102.045 70.4583 101.615 81.1306C101.395 86.586 99.7889 91.5778 98.245 95.5866C97.5012 97.5178 96.6732 99.4599 96.1258 100.847C95.5197 102.384 95.19 103.403 95.119 104.046C95.0239 104.907 94.9956 105.68 94.9598 106.477C94.9254 107.246 94.8827 108.077 94.7362 108.896C94.4159 110.686 93.6216 112.296 91.7723 113.904C89.9388 115.498 87.2847 115.666 85.2528 115.508C83.1156 115.343 81.0187 114.764 79.7479 114.225C78.4984 113.696 77.9688 113.486 76.8329 113.284C75.5721 113.06 73.6525 112.865 69.6629 112.464V112.463L69.2704 112.424H69.2694C55.5879 111.047 44.3812 103.149 37.6913 95.985C32.9882 90.9487 28.0822 83.4209 25.5272 79.1599C24.7149 77.8054 24.3062 76.1273 24.662 74.4255C26.2108 67.0171 31.7667 60.4589 37.7879 55.3434C43.2009 50.7447 49.2183 47.1207 53.7098 44.8991L50.6698 35.6384C49.3313 31.5614 50.7337 27.0746 54.1629 24.5016L70.8885 11.9509L71.0467 11.8386ZM56.7586 55.1227C53.1458 57.2578 48.1106 60.8699 44.0477 64.4909C41.6013 66.6713 39.6292 68.748 38.5272 70.4177C37.9672 71.2662 37.7388 71.8534 37.6854 72.1911C37.6795 72.2285 37.679 72.2586 37.6776 72.2819C38.0578 72.5544 39.0144 72.803 40.9637 72.4958C42.8867 72.1927 45.2485 71.4337 47.7664 70.4216C52.1996 68.6396 56.8164 66.1964 59.8329 64.5485L59.0692 62.2057L56.7586 55.1227ZM77.8602 47.5983C77.1946 47.4642 76.2769 47.4834 75.1659 47.6686C72.9553 48.0372 70.5004 48.9737 68.9227 49.735L66.9373 50.6931L68.8202 56.5729L69.245 57.8991L68.1209 58.7224L62.0487 63.1667L61.162 63.8151C63.9699 62.2314 68.9398 58.7964 72.9637 55.2585C75.0362 53.4363 76.7637 51.6691 77.8182 50.1804C78.3487 49.4314 78.6383 48.8506 78.7557 48.444C78.8114 48.2511 78.8141 48.1468 78.8114 48.1032C78.6966 47.9256 78.4613 47.7195 77.8602 47.5983Z" fill="#FE9A00" stroke="white" stroke-width="3.86667"/>
<path d="M36.503 29.5137C39.3376 26.945 43.7078 27.1767 46.2579 30.0274C47.4167 31.3228 48.6399 33.6775 49.3204 35.9083C49.666 37.0411 49.9137 38.2744 49.8956 39.4278C49.8781 40.5432 49.6009 41.9265 48.5177 42.9083C47.4311 43.893 46.0265 44.0275 44.9151 43.9278C43.7684 43.8248 42.5728 43.4464 41.4884 42.9815C39.3522 42.0658 37.1516 40.5939 35.9923 39.2979C33.4487 36.4544 33.6758 32.0763 36.503 29.5137Z" fill="#FE9A00" stroke="white" stroke-width="3.86667"/>
</svg>
