<svg width="79" height="104" viewBox="0 0 79 104" fill="none" xmlns="http://www.w3.org/2000/svg">
<path d="M34.9076 18.0097C33.9132 18.7839 33.5087 20.0972 33.8953 21.2968L41.4378 44.7054L35.2272 49.2217L32.1225 39.7651C24.5005 43.5763 5.86935 57.8315 10.1037 61.5015C14.3381 65.1714 30.2873 56.5615 36.2153 53.3152C42.1433 50.0689 57.6699 38.6359 55.2701 34.5426C53.3504 31.2681 46.0016 33.7428 42.5669 35.3895L40.5913 28.7557C41.1558 28.3795 44.0071 27.2879 50.8947 25.9329C59.5045 24.2391 63.1745 25.086 67.5499 35.3895C71.9252 45.6935 75.3131 58.5371 74.8896 68.9822C74.466 79.4272 68.679 88.3196 68.2554 92.1304C67.8318 95.9412 68.6047 98.1994 65.5 100.881C63.0158 103.027 57.4815 101.812 55.2701 100.881C52.6315 99.7703 52.4522 99.7521 44.3815 98.9451L43.9786 98.905C30.6093 97.568 19.5604 89.8716 12.9266 82.8145C8.2631 77.8533 3.33078 70.3495 0.734658 66.0483C0.116876 65.0249 -0.15616 63.8199 0.0900158 62.65C2.9867 48.8845 21.1812 37.4198 30.2873 33.2726L26.6352 22.2218C25.529 18.8752 26.6893 15.1961 29.5155 13.0895L46.6239 0.335957C47.4078 -0.248643 48.5229 -0.0493189 49.0558 0.770821L50.8935 3.59829C51.3736 4.33573 51.2083 5.31739 50.5143 5.85775L34.9076 18.0097Z" fill="#FE9A00"/>
<path d="M18.7694 18.4428C20.6472 20.5283 23.3123 26.8878 21.2269 28.7656C19.1414 30.6435 13.0951 27.3284 11.2173 25.243C9.33955 23.1576 9.50788 19.9447 11.5933 18.0669C13.6787 16.1891 16.8916 16.3574 18.7694 18.4428Z" fill="#FE9A00"/>
<path d="M8.96754 31.6573C11.2118 31.0561 16.9048 31.4805 17.5062 33.7248C18.1075 35.9689 13.3894 39.1829 11.1452 39.7844C8.90099 40.3856 6.59419 39.0538 5.99285 36.8097C5.39148 34.5654 6.72333 32.2587 8.96754 31.6573Z" fill="#FE9A00"/>
</svg>
