<svg width="13" height="17" viewBox="0 0 13 17" fill="none" xmlns="http://www.w3.org/2000/svg">
<path d="M5.47178 3.1758L6.81888 7.35658L5.79688 8.09978L5.28598 6.54363C4.03173 7.17078 0.965843 9.51658 1.66263 10.1205C2.35943 10.7244 4.98398 9.30758 5.95948 8.77339C6.93498 8.23919 9.48998 6.35781 9.09508 5.68423C8.77918 5.14538 7.56988 5.55262 7.00468 5.82358L6.67958 4.73195C6.77248 4.67004 7.24168 4.49041 8.37508 4.26744C9.79188 3.98872 10.3958 4.12808 11.1158 5.82358C11.8358 7.51918 12.3933 9.63268 12.3236 11.3515C12.2539 13.0703 11.3016 14.5336 11.2319 15.1607C11.1622 15.7878 11.1622 16.2755 10.6513 16.7168C10.2425 17.0699 9.45898 16.7539 9.09508 16.6007C8.66088 16.4179 8.63138 16.4149 7.30328 16.2821L7.23698 16.2755C5.03698 16.0555 3.2188 14.789 2.12716 13.6277C1.35975 12.8113 0.548103 11.5765 0.120893 10.8687C0.0192328 10.7003 -0.0256973 10.502 0.0148127 10.3095C0.491483 8.04428 3.48551 6.15768 4.98398 5.47523L4.383 3.65676C4.20098 3.10604 4.39191 2.50062 4.85698 2.15396L7.67228 0.0552841C7.80128 -0.0409159 7.98478 -0.00811575 8.07248 0.126844L8.37488 0.592124C8.45388 0.713474 8.42668 0.875014 8.31248 0.963934L5.47178 3.1758Z" fill="#FFD230"/>
<path d="M3.08863 3.03489C3.39763 3.37807 3.83619 4.42457 3.49302 4.73358C3.14985 5.0426 2.15489 4.49708 1.84588 4.15391C1.53688 3.81074 1.56458 3.28204 1.90775 2.97303C2.25092 2.66403 2.77962 2.69172 3.08863 3.03489Z" fill="#FFD230"/>
<path d="M1.47567 5.20942C1.84498 5.11049 2.78181 5.18033 2.88076 5.54965C2.97972 5.91893 2.20332 6.44782 1.83402 6.5468C1.46472 6.64573 1.08512 6.42657 0.986165 6.05729C0.887205 5.68797 1.10637 5.3084 1.47567 5.20942Z" fill="#FFD230"/>
</svg>
